<svg width="213" height="16" viewBox="0 0 213 16" fill="none" xmlns="http://www.w3.org/2000/svg">
<path fill-rule="evenodd" clip-rule="evenodd" d="M70.614 1.41336C47.1254 1.08181 23.5411 2.29346 0.806053 7.38116C0.400422 7.47158 0.232031 7.64942 0.198843 7.69011C0.00463152 7.93123 -0.0163007 8.18742 0.00828306 8.3984C0.0230333 8.5265 0.122641 9.06751 0.66717 9.12327C1.0433 9.16094 3.71305 8.89722 4.74311 8.82941C9.59225 8.51143 14.4316 8.05782 19.2684 7.53337C30.2352 6.34885 41.1872 5.32408 52.1712 4.39124C58.3381 3.86679 64.5074 3.43276 70.673 3.0771C85.5055 3.28959 100.301 4.11846 114.82 4.97445C109.049 5.40998 103.747 5.85153 99.3499 6.13787C91.9354 6.62012 84.5345 7.18976 77.1348 7.94026C73.333 8.32455 69.5359 8.74201 65.7414 9.23481C65.3211 9.29057 64.3635 9.34783 63.9001 9.41564C63.7035 9.44277 63.5609 9.48648 63.497 9.51662C63.0963 9.7065 63.0459 10.0953 63.041 10.2912C63.0385 10.4103 63.0717 11.0598 63.7477 11.1864C95.1817 17.1271 127.976 10.2159 159.523 15.9908C159.893 16.0586 160.24 15.7451 160.295 15.29C160.351 14.8364 160.095 14.4114 159.724 14.3436C130.012 8.90475 99.1926 14.7204 69.4426 10.451C72.0423 10.142 74.6432 9.86322 77.2466 9.59949C84.6328 8.8505 92.0202 8.28237 99.4224 7.80012C106.871 7.31636 116.941 6.37145 127.481 5.77618C136.527 6.39406 145.567 7.08729 154.614 7.67502C158.431 7.92218 162.249 8.12714 166.064 8.37881C167.632 8.48129 171.668 8.91078 172.253 8.75104C172.708 8.62596 172.817 8.22661 172.844 8.02617C172.872 7.80916 172.855 7.53939 172.649 7.28169C172.585 7.20031 172.393 7.03153 172 6.89289C161.361 3.15698 143.941 3.21575 127.626 4.11846C124.117 3.87733 120.607 3.64827 117.097 3.4418C109.06 2.96709 100.936 2.49087 92.7639 2.11562C115.793 1.41787 138.833 1.61831 161.879 2.12316C171.555 2.33565 197.637 3.61663 207.909 4.7484C207.784 4.90664 207.71 5.12666 207.719 5.36627C207.736 5.82441 208.054 6.18007 208.429 6.15897C210.548 6.03841 211.774 5.88469 212.259 5.72646C212.562 5.6285 212.726 5.47177 212.802 5.36929C212.989 5.12214 213.024 4.85689 212.987 4.60522C212.964 4.44849 212.906 4.27669 212.773 4.11846C212.684 4.00995 212.468 3.84419 212.099 3.73116C208.062 2.49992 173.424 0.711074 161.903 0.457894C131.457 -0.208209 101.024 -0.343828 70.614 1.41336ZM163.764 6.56435C157.815 5.57424 150.84 5.22612 143.565 5.24872C147.271 5.51245 150.978 5.77016 154.687 6.01128C157.712 6.2087 160.738 6.37748 163.764 6.56435ZM42.5541 3.56388C34.7488 4.26917 26.9521 5.03172 19.1492 5.87565C18.2482 5.9721 17.3484 6.06704 16.4474 6.16048C25.0763 4.86444 33.795 4.0401 42.5541 3.56388Z" fill="#533E29"/>
</svg>
